<svg xmlns="http://www.w3.org/2000/svg" viewBox="0 0 220 220">
  <rect width="220" height="220" fill="#fff0fb"/>
  <circle cx="110" cy="104" r="48" fill="#ffe0ca" stroke="#222" stroke-width="7"/>
  <path d="M80 75c18-24 43-28 63-4" fill="none" stroke="#5a2b8a" stroke-width="13" stroke-linecap="round"/>
  <circle cx="94" cy="102" r="5" fill="#222"/><circle cx="126" cy="102" r="5" fill="#222"/>
  <path d="M94 124c11 9 21 9 32 0" fill="none" stroke="#222" stroke-width="5" stroke-linecap="round"/>
  <path d="M45 78l10 18 21 3-15 14 4 21-20-10-20 10 4-21-15-14 21-3zM171 62l8 15 17 2-12 12 3 17-16-8-16 8 3-17-12-12 17-2z" fill="#ffd600" stroke="#222" stroke-width="4"/>
  <text x="110" y="199" text-anchor="middle" font-family="Arial, sans-serif" font-size="17" font-weight="900" fill="#222">응원해!</text>
</svg>
