<svg width="1200" height="720" viewBox="0 0 1200 720" fill="none" xmlns="http://www.w3.org/2000/svg">
  <rect width="1200" height="720" fill="#F7F4EF"/>
  <rect x="70" y="56" width="1060" height="180" rx="32" fill="url(#g)"/>
  <text x="110" y="108" font-family="Arial" font-size="18" fill="#fff">
    <tspan>무료 BYOK · SNS Sticker Generator</tspan>
  </text>
  <rect x="104" y="83" width="286" height="36" rx="18" fill="#111"/>
  <text x="110" y="177" font-family="Arial" font-size="58" font-weight="800" fill="#161616">SNS 이모티콘 메이커</text>
  <text x="110" y="212" font-family="Arial" font-size="22" fill="#444">이미지를 업로드하고 스타일을 선택해 8종 스티커 ZIP을 만드세요.</text>
  <rect x="70" y="270" width="510" height="170" rx="26" fill="#fff" stroke="#ECE7DF"/>
  <text x="100" y="320" font-family="Arial" font-size="26" font-weight="700" fill="#161616">1. Gemini API Key</text>
  <rect x="100" y="345" width="420" height="48" rx="14" fill="#FAF6EF" stroke="#DDD4C8"/>
  <text x="120" y="376" font-family="Arial" font-size="18" fill="#777">AIza...</text>
  <rect x="620" y="270" width="510" height="170" rx="26" fill="#fff" stroke="#ECE7DF"/>
  <text x="650" y="320" font-family="Arial" font-size="26" font-weight="700" fill="#161616">2. 이미지 업로드</text>
  <rect x="650" y="345" width="420" height="48" rx="14" fill="#FAF6EF" stroke="#DDD4C8"/>
  <text x="670" y="376" font-family="Arial" font-size="18" fill="#777">파일 선택</text>
  <rect x="70" y="470" width="330" height="170" rx="26" fill="#fff" stroke="#ECE7DF"/>
  <text x="100" y="520" font-family="Arial" font-size="24" font-weight="700" fill="#161616">8종 세트 생성</text>
  <rect x="100" y="548" width="130" height="44" rx="14" fill="#111"/>
  <text x="122" y="577" font-family="Arial" font-size="17" font-weight="700" fill="#fff">생성</text>
  <rect x="240" y="548" width="130" height="44" rx="14" fill="#EFE8DE"/>
  <text x="263" y="577" font-family="Arial" font-size="17" font-weight="700" fill="#222">ZIP</text>
  <rect x="435" y="470" width="330" height="170" rx="26" fill="#fff" stroke="#ECE7DF"/>
  <text x="465" y="520" font-family="Arial" font-size="24" font-weight="700" fill="#161616">플랫폼 내보내기</text>
  <text x="465" y="560" font-family="Arial" font-size="18" fill="#555">카카오 · 텔레그램 · LINE</text>
  <rect x="800" y="470" width="330" height="170" rx="26" fill="#fff" stroke="#ECE7DF"/>
  <text x="830" y="520" font-family="Arial" font-size="24" font-weight="700" fill="#161616">스타일 라이브러리</text>
  <text x="830" y="560" font-family="Arial" font-size="18" fill="#555">치비 · 웹툰 · 낙서 · 픽셀</text>
  <defs>
    <linearGradient id="g" x1="70" y1="56" x2="1130" y2="236" gradientUnits="userSpaceOnUse">
      <stop stop-color="#FFFFFF"/>
      <stop offset="1" stop-color="#F1E7D7"/>
    </linearGradient>
  </defs>
</svg>
